<?xml version="1.0" encoding="UTF-8" standalone="no"?>
<!DOCTYPE svg PUBLIC "-//W3C//DTD SVG 1.1//EN" "http://www.w3.org/Graphics/SVG/1.1/DTD/svg11.dtd">
<svg xmlns="http://www.w3.org/2000/svg" xmlns:xl="http://www.w3.org/1999/xlink" xmlns:dc="http://purl.org/dc/elements/1.1/" version="1.1" viewBox="0 3 30 30" >
  <defs/>
  <g id="Canvas_1" stroke-dasharray="none" stroke-opacity="1" fill-opacity="1" stroke="none" fill="none">
    <title>Canvas 1</title>
    <g id="Canvas_1: Layer 1">
      <title>Layer 1</title>
      <g id="Group_2">
        <g id="Graphic_3">
          <title>svg_1</title>
          <path d="M 28.961344 16.94441 C 28.646535 16.417186 28.251565 15.940837 27.79427 15.533053 C 27.856023 15.218092 27.896283 14.880001 27.896283 14.517091 C 27.896283 10.926477 25.110515 8.005471 21.686353 8.005471 C 21.213274 8.005471 20.742478 8.071582 20.26682 8.206065 C 19.872708 7.496823 19.356953 6.8720495 18.737276 6.359291 C 17.662467 5.4700584 16.369929 5 14.999003 5 C 13.628807 5 12.336645 5.469986 11.26215 6.359394 C 10.642513 6.872208 10.12692 7.496877 9.732559 8.206162 C 9.257074 8.071844 8.786227 8.005496 8.313477 8.005496 C 4.888421 8.005496 2.102113 10.926686 2.102113 14.517115 C 2.102113 14.874197 2.1418997 15.211568 2.2051623 15.532741 C 1.7476456 15.940762 1.3525468 16.417266 1.0378426 16.944853 C .4851212 17.871596 .19294844 18.937529 .19294844 20.027566 C .19294844 23.342066 2.7641526 26.038323 5.924557 26.038323 L 24.075168 26.038323 L 24.075494 26.03807 C 27.2359 26.03807 29.80705 23.34152 29.80705 20.027274 C 29.807045 18.93717 29.51458 17.871158 28.961345 16.944409 Z M 24.075422 23.032805 L 5.924782 23.032805 C 4.3449837 23.032805 3.0598517 21.684741 3.0598517 20.02754 C 3.0598517 18.971405 3.622791 18.010056 4.5654246 17.45582 L 5.002629 17.198769 C 5.762859 17.796064 6.505513 18.059663 6.53743 18.07066 L 9.407119 19.072912 L 9.407072 19.07284 L 6.971202 17.191753 C 6.9523464 17.177295 5.0898384 15.718459 5.098672 13.96567 L 5.1008186 13.542522 C 5.504654 12.082056 6.791959 11.011173 8.313649 11.011173 L 8.313947 11.010915 C 8.783093 11.010915 9.26339 11.154992 9.825371 11.464647 L 11.374359 12.317757 L 11.86732 10.557772 C 12.29493 9.031251 13.553676 8.005574 14.999418 8.005574 C 16.446369 8.005574 17.705317 9.031013 18.132127 10.557132 L 18.6245 12.31822 L 20.174137 11.464701 C 20.736113 11.155071 21.21666 11.010996 21.686395 11.010996 C 23.5299 11.010996 25.0296 12.583739 25.0296 14.517166 C 25.0296 14.841956 24.934776 15.1909 24.782032 15.648643 L 24.384662 16.838968 L 25.433853 17.45579 C 26.37716 18.010318 26.9403 18.971763 26.9403 20.027508 C 26.940315 21.684558 25.655165 23.032806 24.075422 23.032806 Z" fill="#3B82F6"/>
        </g>
      </g>
    </g>
  </g>
</svg>
